<?xml version="1.0" encoding="UTF-8"?>
<!DOCTYPE svg PUBLIC "-//W3C//DTD SVG 1.1//EN" "http://www.w3.org/Graphics/SVG/1.1/DTD/svg11.dtd">
<!-- Creator: CorelDRAW X7 -->
<svg xmlns="http://www.w3.org/2000/svg" xml:space="preserve" width="23.3858in" height="16.5354in" version="1.1" style="shape-rendering:geometricPrecision; text-rendering:geometricPrecision; image-rendering:optimizeQuality; fill-rule:evenodd; clip-rule:evenodd"
viewBox="0 0 23386 16535"
 xmlns:xlink="http://www.w3.org/1999/xlink">
 <defs>
  <style type="text/css">
   <![CDATA[
    .fil0 {fill:black}
   ]]>
  </style>
 </defs>
 <g id="Layer_x0020_1">
  <metadata id="CorelCorpID_0Corel-Layer"/>
  <path class="fil0" d="M1632 8033l0 455 -1 1647 631 0c152,-599 694,-1043 1340,-1043 645,0 1185,443 1338,1043l465 0 0 -3976 -2918 0 -855 1874zm3845 -1149l1527 1c84,45 179,70 281,70 100,0 195,-25 279,-69l3551 4c83,42 177,65 277,65 99,0 192,-23 275,-65l2978 3c80,40 169,62 265,62 94,0 184,-22 263,-61l3583 4c79,37 168,57 261,57 92,0 180,-20 259,-57l1248 1 78 192 858 2022 0 1274 -538 0 -775 0c-34,-57 -73,-111 -118,-159l921 0 176 0 0 -1061 -782 -1902 -3560 0 1734 2963 142 0c-45,48 -84,102 -118,159l-280 0c-33,-57 -73,-111 -117,-159l275 0 -1776 -2963 -7180 0 1197 2046c200,-192 595,-343 690,-378 129,-47 459,-160 776,-202 557,-272 1182,-463 1194,-466 10,-2 257,-54 946,-54 458,0 906,90 1300,170 207,42 402,81 575,103 498,61 873,67 877,67 29,0 56,19 67,46 9,22 214,539 214,775 0,256 -357,513 -397,542 -13,9 -28,13 -43,13l-148 0c-111,176 -306,295 -529,295 -223,0 -417,-118 -528,-295l-3062 0c-106,176 -297,295 -517,295 -220,0 -411,-119 -517,-295l-538 0 176 301 624 0c78,36 164,57 255,57 91,0 178,-21 255,-57l3593 0c79,37 167,57 259,57 93,0 181,-20 260,-57l332 0c-44,48 -84,102 -117,159l-4430 0 -1438 0 0 88 5822 0c-42,94 -69,196 -78,304 -1912,0 -6096,-17 -5744,-17l-608 0c-68,-438 -448,-774 -906,-774 -458,0 -837,336 -905,774l-2859 0 0 -1498 0 -2173 -35 0 0 -207zm5313 3400l-82 -56 392 0 -181 -301 -302 0c-32,0 -61,-20 -71,-51 -2,-8 -57,-186 6,-404 8,-29 23,-58 43,-86l-1271 -2121 -3480 0 0 1999 3439 0 1507 1020zm-7049 -4353c0,0 617,-559 1735,-1063l0 1063 -1735 0zm-1579 4319c-16,72 -26,148 -26,225 0,64 8,127 21,188l-563 1 0 -414 568 0zm1444 -734c-614,-1 -1111,497 -1111,1110 0,614 497,1111 1111,1111 613,0 1110,-496 1110,-1111 -1,-613 -498,-1110 -1110,-1110zm0 1597c-270,0 -488,-218 -488,-488 0,-268 216,-487 488,-487 268,0 487,217 487,487 0,270 -219,488 -487,488zm5671 -1040c-460,0 -833,371 -833,831 0,460 373,833 833,833 458,0 831,-373 831,-833 0,-459 -372,-831 -831,-831zm0 1196c-201,0 -367,-164 -367,-366 0,-200 163,-364 367,-364 200,0 365,163 365,364 0,202 -164,366 -365,366zm-4314 -1019l433 0 0 413 -427 0c8,-61 15,-124 15,-188 0,-78 -9,-153 -21,-225zm122 -3789l0 985 -1125 0 -833 700 -1113 0 619 -1685 2452 0zm8300 -315c76,-263 680,-495 799,-539 129,-47 459,-160 777,-202 557,-272 1181,-462 1193,-466 10,-2 257,-54 946,-54 459,0 906,91 1301,170 206,42 401,81 575,103 497,61 872,67 876,67 30,0 56,19 67,46 9,22 215,539 215,776 0,255 -358,513 -398,541 -13,9 -27,13 -42,13l-149 0c-110,177 -305,295 -528,295 -223,0 -418,-118 -529,-295l-3061 0c-106,176 -298,295 -517,295 -221,0 -411,-119 -518,-295l-942 0c-32,0 -60,-20 -70,-51 -2,-7 -58,-186 5,-404zm1220 144c0,-168 137,-304 305,-304 168,0 304,136 304,304 0,168 -136,304 -304,304 -168,0 -305,-136 -305,-304zm4108 -19c0,-168 136,-304 304,-304 168,0 304,136 304,304 0,168 -136,304 -304,304 -168,0 -304,-136 -304,-304zm-3515 -814c128,27 269,44 424,52l-4 -8c-11,-19 -13,-41 -5,-62 8,-20 24,-36 44,-43l222 -79c20,-7 42,-5 61,5 18,11 31,29 36,50l29 139c376,-12 793,-62 1255,-126l-202 -352c-630,2 -866,49 -867,49 -7,2 -499,152 -993,375zm3174 -257c-350,-71 -742,-146 -1141,-161l187 324c82,-12 166,-24 252,-36 257,-36 519,-74 791,-109 -29,-6 -59,-12 -89,-18zm645 1549c263,0 478,-215 478,-478 0,-264 -215,-478 -478,-478 -264,0 -478,214 -478,478 0,263 214,478 478,478zm-4107 0c252,0 458,-206 458,-459 0,-253 -205,-459 -458,-459 -254,0 -459,206 -459,459 0,253 206,459 459,459zm-9150 -603c76,-263 680,-495 799,-539 129,-47 459,-160 777,-202 557,-272 1181,-462 1193,-466 10,-2 257,-54 946,-54 459,0 906,91 1301,170 206,42 401,81 575,103 497,61 872,67 876,67 30,0 56,19 67,46 9,22 214,539 214,776 0,255 -357,513 -397,541 -13,9 -27,13 -42,13l-149 0c-110,177 -305,295 -528,295 -223,0 -418,-118 -529,-295l-3061 0c-106,176 -298,295 -517,295 -221,0 -411,-119 -518,-295l-942 0c-32,0 -60,-20 -70,-51 -2,-7 -58,-186 5,-404zm1220 144c0,-168 137,-304 305,-304 168,0 304,136 304,304 0,168 -136,304 -304,304 -168,0 -305,-136 -305,-304zm4107 -19c0,-168 137,-304 305,-304 168,0 304,136 304,304 0,168 -136,304 -304,304 -168,0 -305,-136 -305,-304zm-3514 -814c128,27 269,44 424,52l-4 -8c-11,-19 -13,-41 -5,-62 8,-20 24,-36 44,-43l222 -79c20,-7 42,-5 61,5 18,11 31,29 36,50l29 139c376,-12 793,-62 1255,-126l-202 -352c-630,2 -866,49 -867,49 -7,2 -499,152 -993,375zm3174 -257c-350,-71 -742,-146 -1141,-161l187 324c82,-12 166,-24 252,-36 257,-36 519,-74 791,-109 -29,-6 -59,-12 -89,-18zm645 1549c263,0 478,-215 478,-478 0,-264 -215,-478 -478,-478 -264,0 -478,214 -478,478 0,263 214,478 478,478zm-4107 0c252,0 458,-206 458,-459 0,-253 -206,-459 -458,-459 -254,0 -459,206 -459,459 0,253 206,459 459,459zm3345 2594c-2,2 -4,4 -6,6 2,-2 4,-4 6,-6zm-10 11c-2,2 -4,5 -6,8 2,-3 4,-6 6,-8zm-9 11c-2,3 -5,6 -7,9 2,-3 5,-6 7,-9zm-9 12c-2,3 -5,6 -7,9 2,-3 5,-6 7,-9zm1170 239c0,-168 136,-304 304,-304 168,0 304,136 304,304 0,168 -136,304 -304,304 -168,0 -304,-136 -304,-304zm4107 -19c0,-168 136,-304 304,-304 168,0 305,136 305,304 0,168 -137,304 -305,304 -168,0 -304,-136 -304,-304zm-3515 -814c128,27 270,44 424,51l-4 -7c-10,-19 -12,-41 -4,-62 7,-20 24,-36 44,-43l222 -79c20,-7 42,-5 61,5 18,11 31,29 35,50l30 139c375,-12 793,-62 1255,-126l-203 -352c-629,2 -865,49 -867,49 -6,2 -498,152 -993,375zm3174 -257c-349,-71 -741,-146 -1140,-162l186 325c83,-12 167,-24 252,-36 257,-37 520,-74 792,-109 -30,-6 -60,-12 -90,-18zm645 1549c264,0 478,-215 478,-478 0,-264 -214,-478 -478,-478 -263,0 -478,214 -478,478 0,263 215,478 478,478zm-4107 0c253,0 459,-206 459,-459 0,-253 -206,-459 -459,-459 -253,0 -458,206 -458,459 0,253 205,459 458,459zm7269 -27c-446,0 -808,361 -808,807 0,446 362,808 808,808 444,0 807,-362 807,-808 0,-446 -362,-807 -807,-807zm-1 1160c-195,0 -355,-158 -355,-354 0,-194 158,-354 355,-354 194,0 354,158 354,354 1,196 -158,354 -354,354zm-1885 -1160c-444,0 -807,361 -807,807 0,446 362,808 807,808 446,0 808,-362 808,-808 0,-446 -362,-807 -808,-807zm0 1160c-194,0 -354,-158 -354,-354 0,-194 159,-354 354,-354 196,0 354,158 354,354 0,196 -158,354 -354,354zm3160 -733l956 0 0 303 -965 0 0 1 -340 0c-9,-108 -36,-210 -78,-304l218 0 209 0zm0 0l0 0zm-2200 304l-34 0c-8,-108 -35,-210 -78,-304l190 0c-42,94 -69,196 -78,304zm2880 -551l3 0 0 -1067 -3 -6 0 1073z"/>
 </g>
</svg>
